<svg
	xmlns="http://www.w3.org/2000/svg"
	viewBox="0 0 25 25"
	fill="#EAEAEA"
>
	<rect
		fill="black"
		height="25"
		width="25"
		x="0"
		y="0"
	/>
	<path d="M13.4925 21.4218L13.2339 23.1453H15.8775L15.4162 24.7617L17.4547 24.661L18.577 21.2842C18.577 21.2842 16.3714 21.5561 13.4925 21.4215V21.4218Z" />
	<path d="M16.3118 16.2974L19.1421 16.2317L18.6089 19.0456L20.6617 18.8364C20.6617 18.8364 21.4213 15.5069 21.4409 13.6862L16.6581 13.5198L16.3115 16.2971L16.3118 16.2974Z" />
	<path d="M18.5755 5.41504L18.7624 7.64405L21.1106 8.20695L21.2542 10.9763L22.9687 11.2512C22.9687 11.2512 22.9987 9.5711 22.5583 6.59047L18.5752 5.41534L18.5755 5.41504Z" />
	<path d="M2.92125 8.91017C2.92125 8.91017 2.66328 10.1953 2.7361 11.3006L4.80967 11.4382L4.81591 14.4836L6.97775 14.8503C6.97775 14.8503 6.82023 13.4594 7.31775 8.8335L2.92125 8.91017Z" />
	<path d="M15.78 4.46704L18.0917 4.94999L17.6527 1.36515C17.6527 1.36515 16.381 0.881606 13.0648 0.5L12.9849 1.99968L15.6858 2.40417L15.78 4.46704Z" />
	<path d="M16.1666 12.874C16.1666 12.874 16.3494 9.62712 16.2609 6.90208C16.2609 6.90208 14.2224 6.42508 10.2824 6.31689L9.92334 8.82884L13.488 9.04461L13.2933 12.6868L16.1666 12.874Z" />
	<path d="M19.23 0.671387L19.468 2.08279L21.355 2.7833L21.7877 4.54362L23.3584 5.1719L22.4436 1.99007L19.23 0.671387Z" />
	<path d="M7.23932 5.87552L9.72957 5.77328L10.5439 1.62554C10.5439 1.62554 8.7063 1.52182 5.86952 1.8847L5.30127 3.67385L7.81559 3.43549L7.23932 5.87552Z" />
	<path d="M0.461256 4.54844L0 6.42408L1.51186 6.12837C1.51186 6.12837 1.15641 7.95615 1.12401 8.53807L2.66619 8.40849C2.66619 8.40849 3.17797 4.97196 3.70818 3.80396L0.461256 4.54844Z" />
	<path d="M7.54932 15.5698L7.65007 17.9795L10.653 18.491L10.5971 20.9004L13.0669 21.1596L13.6208 16.3054C13.6208 16.3054 10.9752 16.2014 7.54991 15.5698H7.54932Z" />
</svg>