<svg
	viewBox="0 0 512 512"
	xmlns="http://www.w3.org/2000/svg"
>
	<g transform="translate(5, 0)">
		<path d="m392.632812 122.957031-76.796874 133.679688 73.734374 135.390625-133.679687-76.792969-135.390625 73.730469 76.792969-133.675782-73.730469-135.394531 133.679688 76.796875zm0 0" fill="#2323df" />
		<path d="m392.632812 122.957031-48.03125 26.15625-61.769531 107.523438 58.707031 107.796875 48.03125 27.59375-73.734374-135.390625zm0 0" fill="#0303bf" />
		<path d="m258.402344 94.648438 34.101562 126.183593 125.378906 36.964844-126.1875 34.105469-36.964843 125.375-34.101563-126.183594-125.378906-36.96875 126.183594-34.101562zm0 0" fill="#df2323" />
		<path d="m292.503906 220.832031-34.101562-126.183593-17.222656 58.402343 18.320312 67.78125 11.566406 35.128907-12.375 35.941406-19.746094 66.96875 15.785157 58.40625 36.964843-125.375 126.1875-34.105469zm0 0" fill="#bf0303" />
		<g fill="#FFFFFF">
			<path d="m425.382812 257.882812c.035157-3.355468-2.160156-6.332031-5.382812-7.28125l-78.714844-23.207031 57.851563-100.699219c3.613281-6.289062-3.59375-13.867187-10.09375-10.324218l-101.988281 55.542968-21.410157-79.222656c-1.917969-7.097656-12.351562-7.246094-14.4375-.164062l-23.207031 78.714844-100.703125-57.851563c-6.289063-3.609375-13.867187 3.589844-10.324219 10.09375l39.785156 73.054687c4.589844 8.421876 17.816407 1.351563 13.175782-7.175781l-27.085938-49.738281 80.789063 46.414062-8.210938 27.839844-122.132812 33.003906c-7.128907 1.929688-7.25 12.347657-.164063 14.4375l78.714844 23.207032-57.847656 100.703125c-3.609375 6.28125 3.554687 13.882812 10.089844 10.324219l101.992187-55.542969 21.410156 79.222656c1.917969 7.097656 12.347657 7.246094 14.4375.164063l13.648438-46.296876c2.738281-9.28125-11.652344-13.523437-14.390625-4.242187l-6.140625 20.828125-27.175781-100.550781c-.683594-2.519531-2.621094-4.503907-5.121094-5.238281l-99.910156-29.457032 100.554687-27.179687c2.515625-.679688 4.5-2.617188 5.238281-5.117188l29.457032-99.910156 27.175781 100.554687c.679687 2.515626 2.617187 4.5 5.117187 5.238282l99.910156 29.457031-100.550781 27.175781c-2.515625.679688-4.496093 2.613282-5.238281 5.109375l-11.125 37.570313c-1.210938 4.085937 1.378906 7.90625 5.0625 9.496094l107.394531 61.695312c6.289063 3.613281 13.867188-3.589844 10.324219-10.089844l-55.542969-101.992187 79.222657-21.410157c3.242187-.875 5.507812-3.800781 5.546874-7.15625zm-203.328124 67.238282-81.824219 44.558594 46.410156-80.789063 27.839844 8.210937zm69.023437-138.316406 81.824219-44.5625-46.410156 80.789062-27.839844-8.207031zm79.207031 185.492187-80.824218-46.429687 8.238281-27.816407 28.023437-7.574219zm0 0" />
			<path d="m256.734375 240.976562c-8.285156-.09375-15.078125 6.542969-15.171875 14.828126-.09375 8.285156 6.542969 15.078124 14.828125 15.171874s15.078125-6.542968 15.171875-14.828124c.09375-8.285157-6.542969-15.078126-14.828125-15.171876zm0 0" />
			<path
				d="m238.5625 66.933594c4.144531 0 7.5-3.359375 7.5-7.5v-27.996094l22.339844 32.265625c4.089844 5.914063 13.667968 2.910156 13.667968-4.269531v-52.007813c0-9.675781-15.003906-9.675781-15.003906 0v27.996094l-22.335937-32.265625c-4.144531-5.988281-13.667969-2.835938-13.667969 4.269531v52.007813c0 4.140625 3.359375 7.5 7.5 7.5zm0 0"
				stroke="#000000"
				stroke-width="8"
			/>
			<path d="m302.011719 43.691406c38.25 8.148438 73.679687 26.625 102.457031 53.4375 28.652344 26.691406 49.5625 60.554688 60.46875 97.925782 2.664062 9.132812 17.121094 5.121093 14.402344-4.203126-11.660156-39.960937-34.015625-76.164062-64.648438-104.699218-30.765625-28.664063-68.648437-48.417969-109.554687-57.132813-9.464844-2.011719-12.589844 12.660157-3.125 14.671875zm0 0" />
			<path
				d="m494.101562 274.464844h-28.097656v-11.5h21.347656c9.675782 0 9.675782-15.003906 0-15.003906h-21.347656v-10.5h28.097656c9.675782 0 9.675782-15.003907 0-15.003907h-35.597656c-4.144531 0-7.5 3.359375-7.5 7.5v52.007813c0 4.144531 3.355469 7.503906 7.5 7.503906h35.597656c9.675782 0 9.675782-15.003906 0-15.003906zm0 0"
				stroke="#000000"
				stroke-width="8"
			/>
			<path d="m475.46875 306.722656c-4.003906-1.070312-8.117188 1.3125-9.183594 5.316406-10.175781 38.160157-30.699218 72.886719-59.351562 100.421876-28.71875 27.605468-64.332032 46.742187-102.992188 55.347656-9.347656 2.082031-6.078125 16.722656 3.261719 14.644531 41.339844-9.203125 79.421875-29.664063 110.125-59.171875 30.628906-29.4375 52.570313-66.566406 63.453125-107.378906 1.066406-4.003906-1.3125-8.113282-5.3125-9.179688zm0 0" />
			<path
				d="m282.527344 476.023438c-4.664063-7.25-12.9375-11.007813-22.6875-10.300782-8.4375.605469-14.980469-1.679687-15.546875-5.441406-.214844-1.410156.207031-2.847656 1.1875-4.046875 1.550781-1.90625 4.398437-3.0625 8.019531-3.253906 6.941406-.371094 11.003906 3.523437 11.179688 3.691406 6.476562 7.1875 17.328124-3.175781 10.847656-10.363281-.886719-.925782-9.050782-9.042969-22.828125-8.308594-7.894531.421875-14.589844 3.53125-18.847657 8.753906-3.628906 4.457032-5.230468 10.203125-4.390624 15.765625 1.851562 12.277344 14.207031 19.410157 31.457031 18.164063 4.167969-.300782 7.363281.925781 8.992187 3.453125 1.375 2.140625 1.441406 4.914062.175782 7.234375-1.953126 3.574218-6.765626 5.625-13.207032 5.625-11.246094 0-16.585937-5.109375-16.816406-5.328125-6.675781-7-17.46875 3.570312-10.789062 10.570312.976562.996094 10.039062 9.761719 27.605468 9.761719 12.101563 0 21.714844-4.898438 26.375-13.441406 3.898438-7.140625 3.621094-15.777344-.726562-22.535156zm0 0"
				stroke="#000000"
				stroke-width="8"
			/>
			<path d="m203.390625 466.433594c-74.667969-18.804688-134.242187-76.484375-155.476563-150.53125-2.664062-9.300782-17.089843-5.164063-14.417968 4.136718 22.699218 79.167969 86.394531 140.839844 166.230468 160.941407 9.195313 2.316406 13.082032-12.175781 3.664063-14.546875zm0 0" />
			<path
				d="m45.113281 286.472656c3.492188 5.53125 12.21875 4.097656 13.664063-2.371094l11.84375-53.007812c2.109375-9.445312-12.53125-12.714844-14.640625-3.273438l-7.882813 35.277344-6.09375-9.640625c-2.859375-4.53125-9.804687-4.558593-12.683594 0l-6.089843 9.640625-7.882813-35.277344c-2.109375-9.441406-16.75-6.171874-14.640625 3.273438l11.84375 53.007812c1.40625 6.300782 10.171875 7.898438 13.660157 2.371094l9.453124-14.964844zm0 0"
				stroke="#000000"
				stroke-width="8"
			/>
			<path d="m38.636719 201.164062c3.871093 1.109376 8.167969-1.269531 9.277343-5.144531 21.6875-75.636719 82.742188-133.671875 159.339844-151.464843 9.425782-2.191407 6.03125-16.796876-3.394531-14.613282-81.898437 19.023438-147.179687 81.078125-170.367187 161.945313-1.140626 3.980469 1.164062 8.136719 5.144531 9.277343zm0 0" />
		</g>
		<g fill="#000000">
			<path d="m272.65625 240.230469c-4.199219-4.296875-9.824219-6.703125-15.835938-6.769531-.085937-.003907-.171874-.003907-.257812-.003907-12.289062 0-22.359375 9.929688-22.5 22.246094-.066406 6.011719 2.210938 11.691406 6.410156 15.988281 4.203125 4.300782 9.824219 6.703125 15.835938 6.773438h.261718c12.289063 0 22.355469-9.925782 22.496094-22.246094.070313-6.011719-2.207031-11.6875-6.410156-15.988281zm-16.175781 23.230469c-2.003907-.023438-3.878907-.824219-5.277344-2.257813-1.402344-1.433594-2.160156-3.324219-2.136719-5.328125.046875-4.105469 3.402344-7.414062 7.5-7.414062h.085938c2.003906.023437 3.875.824218 5.277344 2.257812 1.398437 1.429688 2.160156 3.324219 2.136718 5.328125-.046875 4.136719-3.417968 7.492187-7.585937 7.414063zm0 0" />
		</g>
	</g>
</svg>